<svg version="1.1" id="Layer_1" xmlns="http://www.w3.org/2000/svg" xmlns:xlink="http://www.w3.org/1999/xlink" x="0px" y="0px"
	 width="100%" viewBox="0 0 512 512" xml:space="preserve">
<path fill="currentColor" opacity="1.000000" stroke="none" 
	d="
M258.000000,362.924530 
	C199.210663,362.924530 140.921341,362.924530 82.354004,362.924530 
	C82.354004,319.704773 82.354004,276.782013 82.354004,233.477661 
	C97.712112,233.477661 113.240089,233.477661 129.269989,233.477661 
	C129.269989,260.607544 129.269989,287.675385 129.269989,314.985657 
	C175.176971,314.985657 220.585312,314.985657 266.280212,314.985657 
	C266.280212,279.727417 266.280212,244.641373 266.280212,208.924515 
	C264.612946,208.924515 262.844116,208.924515 261.075287,208.924515 
	C225.584412,208.924515 190.093262,208.860886 154.603149,209.026398 
	C151.187592,209.042313 149.671844,207.928879 148.423447,204.963470 
	C142.417099,190.695923 136.223373,176.507278 129.890945,161.814468 
	C131.687912,161.697845 133.104675,161.523727 134.521179,161.525803 
	C189.007019,161.605820 243.492859,161.697845 297.978668,161.799362 
	C309.457397,161.820740 313.924347,166.312775 313.924408,177.762772 
	C313.924622,228.583023 313.900482,279.403290 313.981567,330.223419 
	C313.986694,333.426361 313.250763,335.799774 310.846832,338.098206 
	C303.381897,345.235565 296.309906,352.786835 288.773346,359.844177 
	C286.968018,361.534698 283.987976,362.664673 281.485992,362.787811 
	C273.840302,363.164154 266.164246,362.924530 258.000000,362.924530 
z"/>
<path fill="currentColor" opacity="1.000000" stroke="none" 
	d="
M380.074707,233.096481 
	C393.336823,233.096481 406.110229,233.096481 419.086487,233.096481 
	C419.086487,276.507111 419.086487,319.410400 419.086487,362.619263 
	C403.615479,362.619263 388.199402,362.619263 372.428650,362.619263 
	C372.428650,319.761475 372.428650,276.745483 372.428650,233.096481 
	C374.731201,233.096481 377.158600,233.096481 380.074707,233.096481 
z"/>
<path fill="currentColor" opacity="1.000000" stroke="none" 
	d="
M419.296509,177.001282 
	C419.296509,187.800842 419.296509,198.100281 419.296509,208.660065 
	C403.500763,208.660065 388.081970,208.660065 372.368469,208.660065 
	C372.368469,193.252853 372.368469,177.845917 372.368469,162.047256 
	C387.708862,162.047256 403.104431,162.047256 419.296478,162.047256 
	C419.296478,166.664169 419.296478,171.582657 419.296509,177.001282 
z"/>
</svg>